<?xml version="1.0" encoding="utf-8"?><svg xmlns="http://www.w3.org/2000/svg" xmlns:xlink="http://www.w3.org/1999/xlink"><symbol viewBox="0 0 1500 1500" id="disket" xmlns="http://www.w3.org/2000/svg"><path d="M0 750V0h1315l93 93 92 92v1315H0V750zm1390 73V255l-72-72-72-73h-136l-2 198-3 197H395l-3-198-2-197H110v1280h1280V823zM990 250V110H510v280h480V250z"/><path d="M245 1247c-3-7-4-145-3-307l3-295h1010v610l-503 3c-399 2-504 0-507-11zm895-297V760H360v380h780V950z"/></symbol><symbol viewBox="0 0 3000 3000" id="grid" xmlns="http://www.w3.org/2000/svg"><path d="M0 1500V0h3000v3000H0V1500zm2800 0V200H200v2600h2600V1500z"/><path d="M400 2300v-300h600v600H400v-300zm400 0v-100H600v200h200v-100zm400 0v-300h600v600h-600v-300zm400 0v-100h-200v200h200v-100zm400 0v-300h600v600h-600v-300zm400 0v-100h-200v200h200v-100zM400 1500v-300h600v600H400v-300zm400 0v-100H600v200h200v-100zm400 0v-300h600v600h-600v-300zm400 0v-100h-200v200h200v-100zm400 0v-300h600v600h-600v-300zm400 0v-100h-200v200h200v-100zM400 700V400h600v600H400V700zm400 0V600H600v200h200V700zm400 0V400h600v600h-600V700zm400 0V600h-200v200h200V700zm400 0V400h600v600h-600V700zm400 0V600h-200v200h200V700z"/></symbol><symbol viewBox="0 0 3000 3000" id="pool" xmlns="http://www.w3.org/2000/svg"><path d="M1225 2984c-180-25-384-106-565-225-127-84-333-290-419-418-76-114-141-248-182-373-79-243-79-693 0-936 149-454 518-824 973-973 126-41 237-54 468-54s342 13 468 54c455 149 824 519 973 973 79 243 79 693 0 936-77 233-187 409-375 598-241 241-508 380-806 419-139 18-396 18-535-1zm496-219c168-28 351-102 509-208 96-64 263-231 327-327 152-227 224-462 224-730 0-352-126-656-375-906-245-246-559-377-906-377S845 344 599 589c-255 254-381 558-380 916 0 347 128 654 375 901 301 301 699 428 1127 359z"/><path d="M1355 2403c-73-11-156-38-233-74-255-119-440-339-508-605-34-136-34-312 0-447 86-337 362-602 698-671 99-21 277-21 376 0 336 69 612 334 698 671 34 135 34 311 0 447-68 266-253 486-508 605-126 59-184 72-348 76-80 2-158 1-175-2zm325-244c467-124 655-686 361-1079-121-161-329-262-541-262-380 0-680 298-681 677-1 458 418 781 861 664z"/><path d="M1399 1997c-89-33-145-85-185-172-43-92-27-241 33-307 15-17 15-19 0-36-36-40-57-106-57-183 0-65 4-85 30-137 57-112 153-172 280-172s223 60 280 172c26 52 30 72 30 137 0 77-21 143-57 183-15 17-15 19 0 36 36 40 57 106 57 183 0 65-4 85-30 137-34 66-77 110-143 144-53 27-184 35-238 15zm161-237c22-22 27-78 10-110-14-27-64-41-100-28-37 12-50 35-50 82 0 49 28 76 80 76 27 0 47-7 60-20zm0-400c22-22 27-78 10-110-14-27-64-41-100-28-37 12-50 35-50 82 0 49 28 76 80 76 27 0 47-7 60-20z"/></symbol><symbol viewBox="0 0 1500 1500" id="res" xmlns="http://www.w3.org/2000/svg"><path d="M0 1245V990h49c28 0 52 4 56 9 3 5 8 73 12 151l6 142 229-229 228-228 42 43 43 42-235 235-234 234 154 3 155 3 3 53 3 52H0v-255zm992 203l3-53 155-3 154-3-234-234-235-235 43-42 42-43 235 235 234 234 3-154 3-155 53-3 52-3v511H989l3-52zM345 430L115 200l-5 152-5 153-52 3-53 3V0h511l-3 53-3 52-155 3-154 3 234 234 234 235-39 40c-21 22-42 40-45 40S471 556 345 430zm530 190l-39-40 234-235 234-234-154-3-155-3-3-52-3-53h511v510h-50c-32 0-52-5-55-12-2-7-7-75-10-152l-7-139-227 227c-124 124-229 226-232 226s-23-18-44-40z"/></symbol><symbol viewBox="0 0 3000 3000" id="time" xmlns="http://www.w3.org/2000/svg"><path d="M1225 2984c-180-25-384-106-565-225-127-84-333-290-419-418-76-114-141-248-182-373-79-243-79-693 0-936 149-454 518-824 973-973 126-41 237-54 468-54s342 13 468 54c455 149 824 519 973 973 79 243 79 693 0 936-77 233-187 409-375 598-241 241-508 380-806 419-139 18-396 18-535-1zm496-219c168-28 351-102 509-208 96-64 263-231 327-327 151-226 224-462 224-725 0-272-71-506-224-735-60-91-239-271-321-325-239-155-473-228-736-228-489 0-929 272-1149 712-178 354-178 789 0 1144 66 130 135 224 243 333 301 301 699 428 1127 359z"/><path d="M1395 1598c-3-7-4-281-3-608l3-595h210l3 497 2 498 298 2 297 3v210l-403 3c-317 2-404 0-407-10z"/></symbol><symbol viewBox="0 0 1500 1500" id="windows" xmlns="http://www.w3.org/2000/svg"><path d="M0 750V0h1500v1500H0V750zm1390 0V110H110v1280h1280V750z"/><path d="M195 1298c-3-7-4-258-3-558l3-545h310v1110l-153 3c-116 2-154 0-157-10zm195-548V310h-80v880h80V750zm204 547c-2-7-3-78-2-157l3-145h710v310l-353 3c-283 2-354 0-358-11zm596-147v-40H710v80h480v-40zM595 898c-3-7-4-168-3-358l3-345h710v710l-353 3c-277 2-354 0-357-10zm595-348V310H710v480h480V550z"/></symbol></svg>