<!DOCTYPE svg PUBLIC "-//W3C//DTD SVG 20010904//EN" "http://www.w3.org/TR/2001/REC-SVG-20010904/DTD/svg10.dtd">
<svg version="1.0" xmlns="http://www.w3.org/2000/svg" width="807px" height="807px" viewBox="0 0 8070 8070" preserveAspectRatio="xMidYMid meet">
<g id="layer101" fill="#ffffff" stroke="none">
 <path d="M5365 6590 l-1480 -1480 -1312 1312 -1313 1313 -575 -575 -575 -575 1312 -1312 1313 -1313 -1368 -1368 c-752 -752 -1367 -1374 -1367 -1382 0 -20 1190 -1210 1210 -1210 8 0 630 615 1382 1367 l1368 1368 1313 -1313 1312 -1312 575 575 575 575 -1313 1313 -1312 1312 1480 1480 c982 982 1480 1487 1480 1500 0 28 -1177 1205 -1205 1205 -13 0 -521 -501 -1500 -1480z"/>
 </g>

</svg>