<!DOCTYPE svg PUBLIC "-//W3C//DTD SVG 20010904//EN" "http://www.w3.org/TR/2001/REC-SVG-20010904/DTD/svg10.dtd">
<svg version="1.0" xmlns="http://www.w3.org/2000/svg" width="150px" height="150px" viewBox="0 0 1500 1500" preserveAspectRatio="xMidYMid meet">
<g id="layer101" fill="#7a8694" stroke="none">
 <path d="M0 750 l0 -750 658 0 657 0 93 93 92 92 0 658 0 657 -750 0 -750 0 0 -750z m1390 73 l0 -568 -72 -72 -72 -73 -68 0 -68 0 -2 198 -3 197 -355 0 -355 0 -3 -198 -2 -197 -140 0 -140 0 0 640 0 640 640 0 640 0 0 -567z m-400 -573 l0 -140 -240 0 -240 0 0 140 0 140 240 0 240 0 0 -140z"/>
 <path d="M245 1247 c-3 -7 -4 -145 -3 -307 l3 -295 505 0 505 0 0 305 0 305 -503 3 c-399 2 -504 0 -507 -11z m895 -297 l0 -190 -390 0 -390 0 0 190 0 190 390 0 390 0 0 -190z"/>
 </g>

</svg>