<!DOCTYPE svg PUBLIC "-//W3C//DTD SVG 20010904//EN" "http://www.w3.org/TR/2001/REC-SVG-20010904/DTD/svg10.dtd">
<svg version="1.0" xmlns="http://www.w3.org/2000/svg" width="300px" height="300px" viewBox="0 0 3000 3000" preserveAspectRatio="xMidYMid meet">
<g id="layer101" fill="#7a8694" stroke="none">
 <path d="M0 1500 l0 -1500 1500 0 1500 0 0 1500 0 1500 -1500 0 -1500 0 0 -1500z m2800 0 l0 -1300 -1300 0 -1300 0 0 1300 0 1300 1300 0 1300 0 0 -1300z"/>
 <path d="M400 2300 l0 -300 300 0 300 0 0 300 0 300 -300 0 -300 0 0 -300z m400 0 l0 -100 -100 0 -100 0 0 100 0 100 100 0 100 0 0 -100z"/>
 <path d="M1200 2300 l0 -300 300 0 300 0 0 300 0 300 -300 0 -300 0 0 -300z m400 0 l0 -100 -100 0 -100 0 0 100 0 100 100 0 100 0 0 -100z"/>
 <path d="M2000 2300 l0 -300 300 0 300 0 0 300 0 300 -300 0 -300 0 0 -300z m400 0 l0 -100 -100 0 -100 0 0 100 0 100 100 0 100 0 0 -100z"/>
 <path d="M400 1500 l0 -300 300 0 300 0 0 300 0 300 -300 0 -300 0 0 -300z m400 0 l0 -100 -100 0 -100 0 0 100 0 100 100 0 100 0 0 -100z"/>
 <path d="M1200 1500 l0 -300 300 0 300 0 0 300 0 300 -300 0 -300 0 0 -300z m400 0 l0 -100 -100 0 -100 0 0 100 0 100 100 0 100 0 0 -100z"/>
 <path d="M2000 1500 l0 -300 300 0 300 0 0 300 0 300 -300 0 -300 0 0 -300z m400 0 l0 -100 -100 0 -100 0 0 100 0 100 100 0 100 0 0 -100z"/>
 <path d="M400 700 l0 -300 300 0 300 0 0 300 0 300 -300 0 -300 0 0 -300z m400 0 l0 -100 -100 0 -100 0 0 100 0 100 100 0 100 0 0 -100z"/>
 <path d="M1200 700 l0 -300 300 0 300 0 0 300 0 300 -300 0 -300 0 0 -300z m400 0 l0 -100 -100 0 -100 0 0 100 0 100 100 0 100 0 0 -100z"/>
 <path d="M2000 700 l0 -300 300 0 300 0 0 300 0 300 -300 0 -300 0 0 -300z m400 0 l0 -100 -100 0 -100 0 0 100 0 100 100 0 100 0 0 -100z"/>
 </g>

</svg>