<!DOCTYPE svg PUBLIC "-//W3C//DTD SVG 20010904//EN" "http://www.w3.org/TR/2001/REC-SVG-20010904/DTD/svg10.dtd">
<svg version="1.0" xmlns="http://www.w3.org/2000/svg" width="300px" height="300px" viewBox="0 0 3000 3000" preserveAspectRatio="xMidYMid meet">
<g id="layer101" fill="#7a8694" stroke="none">
 <path d="M1225 2984 c-180 -25 -384 -106 -565 -225 -127 -84 -333 -290 -419 -418 -76 -114 -141 -248 -182 -373 -79 -243 -79 -693 0 -936 149 -454 518 -824 973 -973 126 -41 237 -54 468 -54 231 0 342 13 468 54 455 149 824 519 973 973 79 243 79 693 0 936 -77 233 -187 409 -375 598 -241 241 -508 380 -806 419 -139 18 -396 18 -535 -1z m496 -219 c168 -28 351 -102 509 -208 96 -64 263 -231 327 -327 152 -227 224 -462 224 -730 0 -352 -126 -656 -375 -906 -245 -246 -559 -377 -906 -377 -347 0 -655 127 -901 372 -255 254 -381 558 -380 916 0 347 128 654 375 901 301 301 699 428 1127 359z"/>
 <path d="M1355 2403 c-73 -11 -156 -38 -233 -74 -255 -119 -440 -339 -508 -605 -34 -136 -34 -312 0 -447 86 -337 362 -602 698 -671 99 -21 277 -21 376 0 336 69 612 334 698 671 34 135 34 311 0 447 -68 266 -253 486 -508 605 -126 59 -184 72 -348 76 -80 2 -158 1 -175 -2z m325 -244 c467 -124 655 -686 361 -1079 -121 -161 -329 -262 -541 -262 -380 0 -680 298 -681 677 -1 458 418 781 861 664z"/>
 <path d="M1399 1997 c-89 -33 -145 -85 -185 -172 -43 -92 -27 -241 33 -307 15 -17 15 -19 0 -36 -36 -40 -57 -106 -57 -183 0 -65 4 -85 30 -137 57 -112 153 -172 280 -172 127 0 223 60 280 172 26 52 30 72 30 137 0 77 -21 143 -57 183 -15 17 -15 19 0 36 36 40 57 106 57 183 0 65 -4 85 -30 137 -34 66 -77 110 -143 144 -53 27 -184 35 -238 15z m161 -237 c22 -22 27 -78 10 -110 -14 -27 -64 -41 -100 -28 -37 12 -50 35 -50 82 0 49 28 76 80 76 27 0 47 -7 60 -20z m0 -400 c22 -22 27 -78 10 -110 -14 -27 -64 -41 -100 -28 -37 12 -50 35 -50 82 0 49 28 76 80 76 27 0 47 -7 60 -20z"/>
 </g>

</svg>