<!DOCTYPE svg PUBLIC "-//W3C//DTD SVG 20010904//EN" "http://www.w3.org/TR/2001/REC-SVG-20010904/DTD/svg10.dtd">
<svg version="1.0" xmlns="http://www.w3.org/2000/svg" width="150px" height="150px" viewBox="0 0 1500 1500" preserveAspectRatio="xMidYMid meet">
<g id="layer101" fill="#7a8694" stroke="none">
 <path d="M0 1245 l0 -255 49 0 c28 0 52 4 56 9 3 5 8 73 12 151 l6 142 229 -229 228 -228 42 43 43 42 -235 235 -234 234 154 3 155 3 3 53 3 52 -255 0 -256 0 0 -255z"/>
 <path d="M992 1448 l3 -53 155 -3 154 -3 -234 -234 -235 -235 43 -42 42 -43 235 235 234 234 3 -154 3 -155 53 -3 52 -3 0 255 0 256 -256 0 -255 0 3 -52z"/>
 <path d="M345 430 l-230 -230 -5 152 -5 153 -52 3 -53 3 0 -255 0 -256 256 0 255 0 -3 53 -3 52 -155 3 -154 3 234 234 234 235 -39 40 c-21 22 -42 40 -45 40 -3 0 -109 -104 -235 -230z"/>
 <path d="M875 620 l-39 -40 234 -235 234 -234 -154 -3 -155 -3 -3 -52 -3 -53 255 0 256 0 0 255 0 255 -50 0 c-32 0 -52 -5 -55 -12 -2 -7 -7 -75 -10 -152 l-7 -139 -227 227 c-124 124 -229 226 -232 226 -3 0 -23 -18 -44 -40z"/>
 </g>

</svg>