<!DOCTYPE svg PUBLIC "-//W3C//DTD SVG 20010904//EN" "http://www.w3.org/TR/2001/REC-SVG-20010904/DTD/svg10.dtd">
<svg version="1.0" xmlns="http://www.w3.org/2000/svg" width="300px" height="300px" viewBox="0 0 3000 3000" preserveAspectRatio="xMidYMid meet">
<g id="layer101" fill="#7a8694" stroke="none">
 <path d="M1225 2984 c-180 -25 -384 -106 -565 -225 -127 -84 -333 -290 -419 -418 -76 -114 -141 -248 -182 -373 -79 -243 -79 -693 0 -936 149 -454 518 -824 973 -973 126 -41 237 -54 468 -54 231 0 342 13 468 54 455 149 824 519 973 973 79 243 79 693 0 936 -77 233 -187 409 -375 598 -241 241 -508 380 -806 419 -139 18 -396 18 -535 -1z m496 -219 c168 -28 351 -102 509 -208 96 -64 263 -231 327 -327 151 -226 224 -462 224 -725 0 -272 -71 -506 -224 -735 -60 -91 -239 -271 -321 -325 -239 -155 -473 -228 -736 -228 -489 0 -929 272 -1149 712 -178 354 -178 789 0 1144 66 130 135 224 243 333 301 301 699 428 1127 359z"/>
 <path d="M1395 1598 c-3 -7 -4 -281 -3 -608 l3 -595 105 0 105 0 3 497 2 498 298 2 297 3 0 105 0 105 -403 3 c-317 2 -404 0 -407 -10z"/>
 </g>

</svg>