<!DOCTYPE svg PUBLIC "-//W3C//DTD SVG 20010904//EN" "http://www.w3.org/TR/2001/REC-SVG-20010904/DTD/svg10.dtd">
<svg version="1.0" xmlns="http://www.w3.org/2000/svg" width="150px" height="150px" viewBox="0 0 1500 1500" preserveAspectRatio="xMidYMid meet">
<g id="layer101" fill="#7a8694" stroke="none">
 <path d="M0 750 l0 -750 750 0 750 0 0 750 0 750 -750 0 -750 0 0 -750z m1390 0 l0 -640 -640 0 -640 0 0 640 0 640 640 0 640 0 0 -640z"/>
 <path d="M195 1298 c-3 -7 -4 -258 -3 -558 l3 -545 155 0 155 0 0 555 0 555 -153 3 c-116 2 -154 0 -157 -10z m195 -548 l0 -440 -40 0 -40 0 0 440 0 440 40 0 40 0 0 -440z"/>
 <path d="M594 1297 c-2 -7 -3 -78 -2 -157 l3 -145 355 0 355 0 0 155 0 155 -353 3 c-283 2 -354 0 -358 -11z m596 -147 l0 -40 -240 0 -240 0 0 40 0 40 240 0 240 0 0 -40z"/>
 <path d="M595 898 c-3 -7 -4 -168 -3 -358 l3 -345 355 0 355 0 0 355 0 355 -353 3 c-277 2 -354 0 -357 -10z m595 -348 l0 -240 -240 0 -240 0 0 240 0 240 240 0 240 0 0 -240z"/>
 </g>

</svg>